HIERARCHY
ROOT Hips
{
    OFFSET 0.000000 0.000000 0.000000
    CHANNELS 6 Xposition Yposition Zposition Zrotation Xrotation Yrotation
    JOINT Spine
    {
        OFFSET -0.000000 7.856138 0.000000
        CHANNELS 3 Zrotation Xrotation Yrotation
        JOINT Spine1
        {
            OFFSET -0.000000 20.830866 0.000000
            CHANNELS 3 Zrotation Xrotation Yrotation
            JOINT Neck
            {
                OFFSET -0.000000 20.745317 1.885938
                CHANNELS 3 Zrotation Xrotation Yrotation
                JOINT Head
                {
                    OFFSET -0.000000 13.412918 -1.916131
                    CHANNELS 3 Zrotation Xrotation Yrotation
                    End Site
                    {
                        OFFSET -0.000000 23.951641 0.000000
                    }
                }
            }
            JOINT LeftShoulder
            {
                OFFSET 3.826675 19.078362 -0.073511
                CHANNELS 3 Zrotation Xrotation Yrotation
                JOINT LeftArm
                {
                    OFFSET 10.442133 0.000000 0.000000
                    CHANNELS 3 Zrotation Xrotation Yrotation
                    JOINT LeftForeArm
                    {
                        OFFSET 37.051945 0.000000 0.000000
                        CHANNELS 3 Zrotation Xrotation Yrotation
                        JOINT LeftHand
                        {
                            OFFSET 24.394852 0.000000 0.000000
                            CHANNELS 3 Zrotation Xrotation Yrotation
                            End Site
                            {
                                OFFSET 14.370985 0.000000 0.000000
                            }
                        }
                    }
                }
            }
            JOINT RightShoulder
            {
                OFFSET -3.827599 19.078362 -0.073511
                CHANNELS 3 Zrotation Xrotation Yrotation
                JOINT RightArm
                {
                    OFFSET -10.442133 0.000000 0.000000
                    CHANNELS 3 Zrotation Xrotation Yrotation
                    JOINT RightForeArm
                    {
                        OFFSET -37.051945 0.000000 0.000000
                        CHANNELS 3 Zrotation Xrotation Yrotation
                        JOINT RightHand
                        {
                            OFFSET -24.394852 0.000000 0.000000
                            CHANNELS 3 Zrotation Xrotation Yrotation
                            End Site
                            {
                                OFFSET -14.370985 0.000000 0.000000
                            }
                        }
                    }
                }
            }
        }
    }
    JOINT LeftUpLeg
    {
        OFFSET 9.580656 0.000000 0.000000
        CHANNELS 3 Zrotation Xrotation Yrotation
        JOINT LeftLeg
        {
            OFFSET -0.000000 -43.769192 0.000000
            CHANNELS 3 Zrotation Xrotation Yrotation
            JOINT LeftFoot
            {
                OFFSET -0.000000 -42.531967 0.000000
                CHANNELS 3 Zrotation Xrotation Yrotation
                JOINT LeftToeBase
                {
                    OFFSET -0.000000 -6.227426 14.370985
                    CHANNELS 3 Zrotation Xrotation Yrotation
                    End Site
                    {
                        OFFSET -0.000000 0.000000 3.832262
                    }
                }
            }
        }
    }
    JOINT RightUpLeg
    {
        OFFSET -9.580656 0.000000 0.000000
        CHANNELS 3 Zrotation Xrotation Yrotation
        JOINT RightLeg
        {
            OFFSET -0.000000 -43.769192 0.000000
            CHANNELS 3 Zrotation Xrotation Yrotation
            JOINT RightFoot
            {
                OFFSET -0.000000 -42.531967 0.000000
                CHANNELS 3 Zrotation Xrotation Yrotation
                JOINT RightToeBase
                {
                    OFFSET -0.000000 -6.227426 14.370985
                    CHANNELS 3 Zrotation Xrotation Yrotation
                    End Site
                    {
                        OFFSET -0.000000 0.000000 3.832262
                    }
                }
            }
        }
    }
}
MOTION
Frames:    5
Frame Time:    0.008333
24.911060    99.560333    35.111778    -3.721205    11.672058    81.941048    -6.077820    12.022487    5.232224    -11.151583    1.268223    4.715439    1.590283    -8.417682    -7.262395    9.705984    -7.753147    -5.892593    -0.385924    9.807966    -0.010167    -41.613323    30.088219    -21.374626    7.042236    -11.085021    -22.864954    3.211592    -9.434907    8.932496    2.342528    11.971926    4.541178    38.366673    60.374466    28.084019    -12.308463    -17.652740    27.309584    -6.546749    -13.893187    -15.727477    17.575560    -66.725327    -0.388653    -97.918640    51.639030    79.699837    38.599258    -32.144630    37.683052    0.000000    0.000000    0.000000    -14.001143    -3.089742    -12.669928    -1.813964    18.090437    -9.587987    13.628292    17.051321    6.113654    0.000000    0.000000    0.000000    
24.902281    100.578568    35.107143    -7.379772    11.477403    82.896965    -6.636704    8.863859    4.923327    -9.971165    0.537725    4.455279    1.647652    -9.044247    -7.513900    9.372535    -6.550154    -6.342231    -0.783888    10.061061    -0.157528    -42.094051    29.926586    -21.178272    6.482927    -11.390432    -22.393629    4.296695    -9.752609    10.140330    2.303735    12.316890    4.046043    37.812943    60.846138    28.231781    -12.259161    -17.960897    28.135563    -6.531862    -14.115583    -15.975875    18.576839    -69.357948    0.915848    -94.828445    52.749359    78.729988    37.223675    -32.658344    35.837215    0.000000    0.000000    0.000000    -13.373524    -6.079323    -14.449831    -1.831470    15.939934    -10.804086    13.295497    22.904203    6.513980    0.000000    0.000000    0.000000    
25.581051    101.866341    35.147331    -7.913166    10.801567    82.510468    -6.859367    8.333560    5.052431    -9.270194    -0.067660    4.546643    1.518770    -8.818684    -7.510904    9.740150    -6.364801    -6.248989    -0.987205    10.522412    0.002984    -42.424423    30.291710    -21.154388    6.095471    -12.236498    -21.824436    4.606485    -10.704718    9.591536    2.096200    12.299768    3.881024    38.096733    61.927174    28.188955    -12.582324    -18.519438    27.755856    -6.645369    -14.654481    -15.608574    18.703476    -68.067070    0.900016    -92.208565    53.182297    76.601044    36.735863    -32.819977    35.380939    0.000000    0.000000    0.000000    -12.511051    -5.499672    -15.144464    -1.723695    13.019978    -12.213688    13.612166    29.384937    5.923773    0.000000    0.000000    0.000000    
26.167023    103.166496    35.125248    -8.840019    10.412156    82.363228    -7.078287    7.056018    5.143706    -8.947419    0.223951    4.724284    2.121934    -9.625918    -7.594145    9.140979    -5.383633    -6.682083    -0.476882    10.674370    0.016664    -42.903305    30.867086    -21.561136    5.645819    -12.738671    -21.492517    5.871220    -11.176094    10.206898    2.653013    12.444938    3.070198    37.166534    61.603935    28.451202    -12.060556    -18.341070    28.983334    -5.708305    -14.563330    -16.149611    18.038101    -67.315872    0.439968    -89.009796    53.749550    74.600060    36.492249    -32.847527    34.673546    0.000000    0.000000    0.000000    -12.027514    -5.774364    -15.749313    -1.501804    11.101674    -13.267691    14.437673    34.358398    3.707450    0.000000    0.000000    0.000000    
26.812416    104.394638    35.091488    -9.360788    9.956793    82.072334    -7.460450    6.230709    5.106579    -8.020922    0.102544    4.707169    1.761502    -9.814687    -7.592971    9.559385    -4.700743    -6.576189    -0.892106    10.647080    0.142182    -43.372513    31.507183    -21.049328    5.212272    -13.421380    -21.438137    6.368299    -11.879796    10.621043    2.524750    12.400092    2.824585    37.079437    62.000591    28.354437    -11.967581    -18.852554    29.110420    -5.290198    -15.191938    -15.274475    17.540277    -66.190216    0.258847    -86.095184    54.303425    72.285950    36.253761    -32.727306    34.312023    0.000000    0.000000    0.000000    -11.540933    -5.708774    -16.165274    -1.163142    9.581283    -14.158624    13.950499    37.089138    2.265296    0.000000    0.000000    0.000000    
